M48
;Layer_Color=6321
;FILE_FORMAT=2:5
INCH,LZ
;TYPE=PLATED
T1F00S00C0.01000
T2F00S00C0.01500
T3F00S00C0.02000
T4F00S00C0.02800
T5F00S00C0.03150
T6F00S00C0.03937
T7F00S00C0.04000
T8F00S00C0.10827
%
T01
X00128Y00848
X0013Y00965
X00376Y00847
X00474Y00927
X00907Y00617
X00972Y00627
X0106Y00665
X01227Y00672
X01253Y00742
X01276Y00721
X01301Y00698
X01295Y00634
X0132318Y0059782
X01405Y00639
X01402Y00666
Y00694
Y00722
X0144035Y0072165
X0148365
X01523Y00722
Y00695
Y00749
X01597Y00755
Y0072
X01603Y00671
Y0063
X01521Y00636
X0147184Y0063516
X01433Y00641
X0144035Y0067835
X0148365
X01522Y00574
X0151Y00832
X01479Y00837
X01489Y00899
X01473Y00935
X01448Y00965
X01502Y00964
X01566Y00864
X01401Y00858
X01343Y00827
X01271Y00842
X01398Y00763
X01185Y00415
X01065Y00379
X01074Y00331
X01013Y00412
X0176Y0063
X01789
X01818
X0185Y00632
X01871Y00653
X01875Y00682
X01876Y00711
Y00738
X01879Y00783
X01851Y0078
X01831Y00757
X01829Y00728
Y00699
X01818Y00675
X01789
X0176
X01665Y00923
T02
X01995Y00132
Y00162
Y00192
Y00222
Y00252
Y00282
Y00312
Y00342
Y00372
Y00402
Y00432
Y00462
Y00492
Y00522
Y00552
Y00582
Y00612
Y00642
Y00672
Y00702
X01965
Y00822
X01995
Y00852
Y00882
Y00912
Y00942
Y00972
T03
X-00044Y0008
Y0025
X0015742Y0018142
X0027529Y00184
X0047529Y00185
X0067557
X0087586
X0107614
X0127643
X0147671
X01476Y-00017
X0127629Y-00016
X01076
X00876Y-00017
X0067529Y-00016
X00475
X00275Y-00017
X00558Y00407
X00677Y00452
Y00677
X00756Y00915
X0095433
X01153
X01154Y01116
X0095533
X00756Y01114
X00558
X00557Y00915
X0081686Y00332
X01052Y0055
X0132779Y0055047
X01333Y00789
X01618Y00823
X0153779Y0046047
X0168747Y0051
X01677Y00185
X01676Y-00016
X01798Y00782
X01797Y00858
X01702Y0103
X01902
T04
X01297Y00826
T05
X0035357Y0041802
X00452Y00607
X0021578
T06
X00231Y00941
X00331
T07
X00354Y-00015
Y00085
Y00185
X00554
Y00085
Y-00015
X00754
Y00085
Y00185
X00954
Y00085
Y-00015
X01154
Y00085
Y00185
X01354
Y00085
Y-00015
X01554
Y00085
Y00185
X01602Y0111
X01502
X01402
X01232Y01115
Y01015
Y00915
X0103367
Y01015
Y01115
X0083533
Y01015
Y00915
X00637
Y01015
Y01115
X00433Y01064
X00333
X00233
X01702Y0111
X01802
X01902
X01754Y00185
Y00085
Y-00015
T08
X0Y0
Y011
X02091Y01105
Y-00005
M30
