M48
;Layer_Color=6321
;FILE_FORMAT=2:5
INCH,LZ
;TYPE=PLATED
T1F00S00C0.01500
T2F00S00C0.02800
T3F00S00C0.03150
T4F00S00C0.03937
T5F00S00C0.04000
T6F00S00C0.04200
T7F00S00C0.10827
%
T01
X-00427Y-00043
X-00482Y00137
T02
X00042Y00101
X-01049Y00074
X-01155
Y00344
X-01048
X-01049Y0064
X-01156
X-01157Y0091
X-01048
Y011795
X-01157Y0118
Y01449
X-01049
X-00802Y01527
Y01587
Y01647
X-00796Y01292
Y0123287
Y0117375
Y0111462
Y010555
Y0099638
Y0093725
Y0087813
Y00819
X-00632Y00602
X-00352Y00562
X-00457Y00237
X-0052235Y01271
Y0132807
Y01386
X-0058434
Y0132807
Y01271
X-0064635
Y0132807
Y01386
X-00271Y0141037
Y0135125
Y0129212
Y01233
Y0117313
Y01114
X-00331Y00809
X-00172Y00472
Y00237
X-00247
X00123Y01137
Y01437
X-00021Y01529
X-00271Y01647
T03
X-00737Y0023578
Y00472
X-0054802Y0037358
T04
X00043Y00201
Y00301
Y00467
Y00567
T05
X00043Y00712
Y00812
Y00912
Y01012
Y01137
Y01237
Y01337
Y01437
T06
X-01202Y00007
X-01102
X-01002
Y00142
X-01102
X-01202
Y00277
X-01102
X-01002
Y00412
X-01102
X-01202
Y00572
X-01102
X-01002
Y00707
X-01102
X-01202
Y00842
X-01102
X-01002
Y00977
X-01102
X-01202
Y01112
X-01102
X-01002
Y01247
X-01102
X-01202
Y01382
X-01102
X-01002
Y01517
X-01102
X-01202
T07
X0Y0
X-01152Y01639
M30
